<svg width="32" height="32" viewBox="0 0 32 32" fill="none" xmlns="http://www.w3.org/2000/svg">
<path d="M27.8 7.12C27.6655 7.02383 27.5092 6.96253 27.3451 6.94159C27.1811 6.92065 27.0144 6.94072 26.86 7C26.3237 7.22903 25.7386 7.32003 25.1581 7.2647C24.5777 7.20937 24.0203 7.00947 23.5369 6.68327C23.0536 6.35706 22.6597 5.91494 22.3912 5.3973C22.1227 4.87967 21.9882 4.30301 22 3.72C22.0034 3.58742 21.9804 3.45548 21.9323 3.33187C21.8843 3.20826 21.8121 3.09545 21.72 3C21.6271 2.9025 21.5154 2.82478 21.3916 2.77151C21.2679 2.71824 21.1347 2.69052 21 2.69H17C16.7348 2.69 16.4804 2.79536 16.2929 2.9829C16.1054 3.17043 16 3.42479 16 3.69V20.81C16 21.3045 15.8534 21.7878 15.5787 22.1989C15.304 22.61 14.9135 22.9305 14.4567 23.1197C13.9999 23.3089 13.4972 23.3584 13.0123 23.262C12.5273 23.1655 12.0819 22.9274 11.7322 22.5778C11.3826 22.2281 11.1445 21.7827 11.048 21.2977C10.9516 20.8128 11.0011 20.3101 11.1903 19.8533C11.3795 19.3965 11.7 19.006 12.1111 18.7313C12.5222 18.4566 13.0056 18.31 13.5 18.31C13.7652 18.31 14.0196 18.2046 14.2071 18.0171C14.3946 17.8296 14.5 17.5752 14.5 17.31V13.31C14.5 13.0448 14.3946 12.7904 14.2071 12.6029C14.0196 12.4154 13.7652 12.31 13.5 12.31C11.2465 12.3126 9.08601 13.209 7.49252 14.8025C5.89904 16.396 5.00265 18.5565 5.00001 20.81C4.98616 22.6047 5.54682 24.3568 6.60001 25.81C6.69202 25.9392 6.81347 26.0447 6.95431 26.1178C7.09516 26.1908 7.25136 26.2293 7.41001 26.23C7.6264 26.2193 7.83345 26.1386 8.00001 26C8.10738 25.9235 8.19855 25.8264 8.26828 25.7145C8.338 25.6026 8.3849 25.478 8.40628 25.3479C8.42766 25.2177 8.42309 25.0847 8.39283 24.9563C8.36258 24.828 8.30724 24.7069 8.23001 24.6C7.42966 23.4985 6.99904 22.1716 7.00001 20.81C7.00232 19.2592 7.55729 17.7601 8.5653 16.5816C9.57331 15.4032 10.9683 14.6226 12.5 14.38V16.38C11.6759 16.5679 10.9213 16.9841 10.3227 17.581C9.72416 18.1778 9.30582 18.9312 9.11561 19.7549C8.9254 20.5785 8.97103 21.439 9.24725 22.2379C9.52347 23.0368 10.0191 23.7418 10.6774 24.272C11.3358 24.8022 12.1301 25.1363 12.9695 25.236C13.8089 25.3357 14.6594 25.197 15.4236 24.8357C16.1878 24.4744 16.8348 23.9051 17.2904 23.1932C17.7461 22.4812 17.992 21.6553 18 20.81V4.69H20.07C20.2809 5.97861 20.9426 7.15043 21.9371 7.99658C22.9316 8.84272 24.1943 9.30819 25.5 9.31C25.7508 9.30828 26.0012 9.29158 26.25 9.26V11.2C24.6216 11.4818 22.9458 11.1884 21.51 10.37C21.358 10.2822 21.1855 10.236 21.01 10.236C20.8345 10.236 20.662 10.2822 20.51 10.37C20.3574 10.4581 20.2308 10.585 20.143 10.7377C20.0552 10.8905 20.0093 11.0638 20.01 11.24V20.81C20.0075 21.8792 19.7418 22.9313 19.2362 23.8734C18.7306 24.8155 18.0007 25.6186 17.1111 26.2117C16.2215 26.8048 15.1995 27.1696 14.1354 27.2739C13.0713 27.3783 11.9979 27.219 11.01 26.81C10.7705 26.7299 10.5096 26.7433 10.2796 26.8476C10.0496 26.9519 9.86764 27.1393 9.77015 27.3723C9.67267 27.6052 9.66693 27.8664 9.75408 28.1034C9.84123 28.3404 10.0148 28.5357 10.24 28.65C11.2777 29.0888 12.3934 29.3133 13.52 29.31C15.6597 29.3068 17.7199 28.4986 19.291 27.046C20.8622 25.5934 21.8292 23.6029 22 21.47C22.0056 21.4168 22.0056 21.3632 22 21.31V12.79C23.7794 13.4119 25.7076 13.4678 27.52 12.95C27.7344 12.8876 27.9218 12.7553 28.0523 12.5741C28.1828 12.3928 28.2489 12.1731 28.24 11.95V8C28.2487 7.82784 28.2128 7.65634 28.1357 7.50215C28.0586 7.34796 27.943 7.21632 27.8 7.12V7.12Z" fill="white"/>
</svg>
